<svg width="287" height="69" viewBox="0 0 287 69" fill="none" xmlns="http://www.w3.org/2000/svg">
<path d="M4.73889 37.2323L21.3592 63.4571C22.7434 65.6411 25.9365 65.6215 27.2943 63.4207L43.5971 36.9943C45.0407 34.6543 43.3466 31.6401 40.5972 31.657L7.67412 31.8585C4.9248 31.8754 3.26719 34.9101 4.73889 37.2323Z" fill="#0034AC" stroke="white" stroke-width="5"/>
<circle cx="24.2095" cy="24.2095" r="22.7095" fill="#0034AC" stroke="white" stroke-width="3"/>
<path d="M42.5623 23.8605C42.5623 33.641 34.6106 41.5721 24.7986 41.5721C14.9866 41.5721 7.03491 33.641 7.03491 23.8605C7.03491 14.08 14.9866 6.14895 24.7986 6.14895C34.6106 6.14895 42.5623 14.08 42.5623 23.8605Z" fill="white" stroke="white"/>
<path d="M21.1595 34.2942C16.6188 31.7965 18.7986 26.801 18.7986 26.801L13.5916 23.9465C13.5916 23.9465 12.6658 23.985 11.2333 24.6601C9.35359 25.5461 9.95902 19.4533 11.5772 20.3783C12.2376 20.7559 13.5916 21.4842 13.5916 21.4842L27.7394 22.5192C29.115 22.876 31.1782 24.6601 33.2415 23.9465C34.2686 23.5912 34.2686 27.1563 33.2415 26.801C32.4795 26.5375 31.866 26.4442 31.5221 26.801C29.8027 28.9419 30.8344 30.3692 31.866 31.7965H35.9925V34.2942H29.8027C28.7711 33.5806 29.8027 31.4397 27.7394 31.7965C27.7394 31.7965 24.6988 36.2411 21.1595 34.2942Z" fill="#0034AC"/>
<path d="M21.8935 10.7442C20.9803 10.4098 19.8303 12.1715 19.8303 12.1715C19.8303 12.1715 21.5496 11.8147 21.5496 13.242C21.5496 14.8308 20.1741 14.3124 20.518 17.167C20.7679 19.241 23.6129 21.092 26.0201 20.3783C28.4272 19.6647 29.115 17.5238 28.7711 16.4533C27.7394 13.242 28.3519 11.8864 28.0833 8.96015C27.4119 10.493 26.0201 10.0306 26.3639 12.8851C26.7078 14.6692 26.2228 17.4727 24.3007 17.5238C22.2166 17.5791 23.1432 12.8001 22.9252 12.1715C22.7071 11.5429 22.5267 10.9761 21.8935 10.7442Z" fill="#0034AC"/>
<path d="M21.1595 34.2942C16.6188 31.7965 18.7986 26.801 18.7986 26.801L13.5916 23.9465C13.5916 23.9465 12.6658 23.985 11.2333 24.6601C9.35359 25.5461 9.95902 19.4533 11.5772 20.3783C12.2376 20.7559 13.5916 21.4842 13.5916 21.4842L27.7394 22.5192C29.115 22.876 31.1782 24.6601 33.2415 23.9465C34.2686 23.5912 34.2686 27.1563 33.2415 26.801C32.4795 26.5375 31.866 26.4442 31.5221 26.801C29.8027 28.9419 30.8344 30.3692 31.866 31.7965H35.9925V34.2942H29.8027C28.7711 33.5806 29.8027 31.4397 27.7394 31.7965C27.7394 31.7965 24.6988 36.2411 21.1595 34.2942Z" stroke="#0034AC"/>
<path d="M21.8935 10.7442C20.9803 10.4098 19.8303 12.1715 19.8303 12.1715C19.8303 12.1715 21.5496 11.8147 21.5496 13.242C21.5496 14.8308 20.1741 14.3124 20.518 17.167C20.7679 19.241 23.6129 21.092 26.0201 20.3783C28.4272 19.6647 29.115 17.5238 28.7711 16.4533C27.7394 13.242 28.3519 11.8864 28.0833 8.96015C27.4119 10.493 26.0201 10.0306 26.3639 12.8851C26.7078 14.6692 26.2228 17.4727 24.3007 17.5238C22.2166 17.5791 23.1432 12.8001 22.9252 12.1715C22.7071 11.5429 22.5267 10.9761 21.8935 10.7442Z" stroke="#0034AC"/>
<path d="M73.55 55.75C70.95 55.75 68.6167 55.35 66.55 54.55C64.4833 53.75 62.7333 52.5833 61.3 51.05C59.8667 49.4833 58.7667 47.5833 58 45.35C57.2333 43.1167 56.85 40.55 56.85 37.65C56.85 34.75 57.2833 32.1833 58.15 29.95C59.05 27.7167 60.2667 25.8333 61.8 24.3C63.3333 22.7333 65.1333 21.55 67.2 20.75C69.2667 19.95 71.4833 19.55 73.85 19.55C75.2833 19.55 76.5833 19.6667 77.75 19.9C78.9167 20.1 79.9333 20.3333 80.8 20.6C81.6667 20.8667 82.3833 21.15 82.95 21.45C83.5167 21.75 83.9167 21.9667 84.15 22.1L82.3 27.25C81.5 26.75 80.35 26.2833 78.85 25.85C77.3833 25.3833 75.7833 25.15 74.05 25.15C72.55 25.15 71.15 25.4167 69.85 25.95C68.55 26.45 67.4167 27.2167 66.45 28.25C65.5167 29.2833 64.7833 30.5833 64.25 32.15C63.7167 33.7167 63.45 35.5333 63.45 37.6C63.45 39.4333 63.65 41.1167 64.05 42.65C64.4833 44.1833 65.1333 45.5167 66 46.65C66.8667 47.75 67.9667 48.6167 69.3 49.25C70.6333 49.85 72.2333 50.15 74.1 50.15C76.3333 50.15 78.15 49.9333 79.55 49.5C80.95 49.0333 82.0333 48.6 82.8 48.2L84.5 53.35C84.1 53.6167 83.55 53.8833 82.85 54.15C82.1833 54.4167 81.3833 54.6833 80.45 54.95C79.5167 55.1833 78.4667 55.3667 77.3 55.5C76.1333 55.6667 74.8833 55.75 73.55 55.75ZM95.8348 37.85C95.7348 39.25 95.6348 40.7167 95.5348 42.25C95.4348 43.75 95.3514 45.25 95.2848 46.75C95.2181 48.25 95.1514 49.7 95.0848 51.1C95.0181 52.5 94.9681 53.8 94.9348 55H89.0848C89.1514 53.0667 89.2514 50.9833 89.3848 48.75C89.5181 46.4833 89.6681 44.2 89.8348 41.9C90.0348 39.5667 90.2348 37.2833 90.4348 35.05C90.6348 32.8167 90.8514 30.75 91.0848 28.85H96.3348C97.6014 30.8833 98.8848 33.2833 100.185 36.05C101.485 38.7833 102.935 41.9 104.535 45.4C106.201 41.8333 107.718 38.6167 109.085 35.75C110.451 32.85 111.668 30.55 112.735 28.85H118.035C118.268 30.75 118.485 32.8167 118.685 35.05C118.918 37.2833 119.118 39.5667 119.285 41.9C119.451 44.2 119.601 46.4833 119.735 48.75C119.868 50.9833 119.968 53.0667 120.035 55H114.035C113.968 52.2667 113.851 49.45 113.685 46.55C113.551 43.6167 113.385 40.7167 113.185 37.85C112.685 38.85 112.135 39.9667 111.535 41.2C110.968 42.4333 110.401 43.6833 109.835 44.95C109.268 46.2167 108.718 47.45 108.185 48.65C107.651 49.8167 107.185 50.85 106.785 51.75H102.285C101.885 50.85 101.401 49.8 100.835 48.6C100.301 47.4 99.7514 46.1667 99.1848 44.9C98.6181 43.6333 98.0348 42.4 97.4348 41.2C96.8681 39.9667 96.3348 38.85 95.8348 37.85ZM150.738 41.9C150.738 43.9667 150.438 45.85 149.838 47.55C149.238 49.25 148.388 50.7 147.288 51.9C146.188 53.1 144.855 54.0333 143.288 54.7C141.755 55.3667 140.055 55.7 138.188 55.7C136.322 55.7 134.622 55.3667 133.088 54.7C131.555 54.0333 130.238 53.1 129.138 51.9C128.038 50.7 127.172 49.25 126.538 47.55C125.938 45.85 125.638 43.9667 125.638 41.9C125.638 39.8333 125.938 37.9667 126.538 36.3C127.172 34.6 128.038 33.15 129.138 31.95C130.272 30.75 131.605 29.8333 133.138 29.2C134.672 28.5333 136.355 28.2 138.188 28.2C140.022 28.2 141.705 28.5333 143.238 29.2C144.805 29.8333 146.138 30.75 147.238 31.95C148.338 33.15 149.188 34.6 149.788 36.3C150.422 37.9667 150.738 39.8333 150.738 41.9ZM144.538 41.9C144.538 39.3 143.972 37.25 142.838 35.75C141.738 34.2167 140.188 33.45 138.188 33.45C136.188 33.45 134.622 34.2167 133.488 35.75C132.388 37.25 131.838 39.3 131.838 41.9C131.838 44.5333 132.388 46.6167 133.488 48.15C134.622 49.6833 136.188 50.45 138.188 50.45C140.188 50.45 141.738 49.6833 142.838 48.15C143.972 46.6167 144.538 44.5333 144.538 41.9ZM167.221 33.85C167.188 35.3167 167.138 36.85 167.071 38.45C167.004 40.0167 166.838 41.5667 166.571 43.1C166.338 44.6333 165.954 46.1 165.421 47.5C164.888 48.9 164.138 50.1667 163.171 51.3C162.238 52.4 161.054 53.3333 159.621 54.1C158.221 54.8333 156.504 55.3 154.471 55.5L153.621 50.45C155.321 50.1167 156.638 49.5833 157.571 48.85C158.504 48.0833 159.221 47.1167 159.721 45.95C160.121 45.0833 160.421 44.1 160.621 43C160.854 41.9 161.021 40.75 161.121 39.55C161.254 38.3167 161.338 37.0667 161.371 35.8C161.404 34.5333 161.421 33.3 161.421 32.1V28.85H179.921V55H173.871V33.85H167.221ZM205.905 55H199.605V20.35H221.605V25.75H205.905V55ZM244.861 28.85V55H238.861C238.861 53.1 238.861 51.2167 238.861 49.35C238.895 47.4833 238.911 45.75 238.911 44.15C238.945 42.55 238.961 41.1667 238.961 40C238.995 38.8 239.011 37.9167 239.011 37.35C238.011 38.65 236.978 40.0833 235.911 41.65C234.845 43.2167 233.778 44.7833 232.711 46.35C231.678 47.9167 230.695 49.45 229.761 50.95C228.828 52.45 228.011 53.8 227.311 55H221.961V28.85H227.911C227.911 30.7833 227.895 32.6333 227.861 34.4C227.861 36.1333 227.861 37.7167 227.861 39.15C227.861 40.5833 227.845 41.8333 227.811 42.9C227.811 43.9667 227.811 44.7833 227.811 45.35C228.745 43.9167 229.711 42.45 230.711 40.95C231.711 39.4167 232.711 37.9333 233.711 36.5C234.745 35.0333 235.761 33.65 236.761 32.35C237.761 31.05 238.728 29.8833 239.661 28.85H244.861ZM249.377 50.05H252.377C253.41 48.6833 254.21 47.1667 254.777 45.5C255.377 43.8 255.81 42.0333 256.077 40.2C256.343 38.3333 256.51 36.4333 256.577 34.5C256.643 32.5667 256.693 30.6833 256.727 28.85H275.477V50.05H279.477V62.4H274.077V55H254.727V62.4H249.377V50.05ZM269.427 50.05V33.85H262.327C262.26 35.2167 262.177 36.6167 262.077 38.05C261.977 39.45 261.793 40.85 261.527 42.25C261.26 43.6167 260.893 44.9667 260.427 46.3C259.993 47.6 259.41 48.85 258.677 50.05H269.427Z" fill="#0034AC"/>
</svg>
