<svg width="110" height="110" viewBox="0 0 110 110" fill="none" xmlns="http://www.w3.org/2000/svg">
<rect x="2.5" y="2.5" width="105" height="105" rx="52.5" fill="white" stroke="#0034AC" stroke-width="5"/>
<path d="M23.6144 59.6289L52.2261 104.775C53.6102 106.959 56.8034 106.939 58.1611 104.738L86.2262 59.2456C87.6698 56.9055 85.9757 53.8913 83.2264 53.9082L26.5497 54.2552C23.8003 54.272 22.1427 57.3068 23.6144 59.6289Z" fill="#0034AC" stroke="white" stroke-width="5"/>
<circle cx="55" cy="40" r="36.5" fill="#0034AC" stroke="white" stroke-width="3"/>
<path d="M85.6111 39.4242C85.6111 55.7444 72.3427 68.977 55.9722 68.977C39.6018 68.977 26.3333 55.7444 26.3333 39.4242C26.3333 23.1039 39.6018 9.87131 55.9722 9.87131C72.3427 9.87131 85.6111 23.1039 85.6111 39.4242Z" fill="white" stroke="white"/>
<path d="M49.9669 56.6419C42.4737 52.5201 46.071 44.2766 46.071 44.2766L37.4783 39.566C37.4783 39.566 35.9506 39.6295 33.5866 40.7437C30.4847 42.2057 31.4838 32.1513 34.1541 33.6778C35.244 34.3008 37.4783 35.5028 37.4783 35.5028L60.8252 37.2107C63.0951 37.7995 66.4999 40.7437 69.9047 39.566C71.5997 38.9797 71.5997 44.8628 69.9047 44.2766C68.6472 43.8416 67.6348 43.6878 67.0673 44.2766C64.23 47.8095 65.9324 50.1648 67.6348 52.5201H74.4445V56.6419H64.23C62.5276 55.4642 64.23 51.9313 60.8252 52.5201C60.8252 52.5201 55.8075 59.8546 49.9669 56.6419Z" fill="#0034AC"/>
<path d="M51.1782 17.7796C49.6712 17.2277 47.7734 20.1349 47.7734 20.1349C47.7734 20.1349 50.6107 19.546 50.6107 21.9013C50.6107 24.5232 48.3409 23.6678 48.9083 28.3784C49.3206 31.801 54.0155 34.8554 57.9878 33.6778C61.9601 32.5002 63.0951 28.9672 62.5276 27.2007C60.8252 21.9013 61.8359 19.6644 61.3926 14.8355C60.2846 17.3649 57.9878 16.6019 58.5553 21.3125C59.1228 24.2566 58.3224 28.883 55.1505 28.9672C51.7113 29.0586 53.2404 21.1722 52.8806 20.1349C52.5208 19.0975 52.2231 18.1622 51.1782 17.7796Z" fill="#0034AC"/>
<path d="M49.9669 56.6419C42.4737 52.5201 46.071 44.2766 46.071 44.2766L37.4783 39.566C37.4783 39.566 35.9506 39.6295 33.5866 40.7437C30.4847 42.2057 31.4838 32.1513 34.1541 33.6778C35.244 34.3008 37.4783 35.5028 37.4783 35.5028L60.8252 37.2107C63.0951 37.7995 66.4999 40.7437 69.9047 39.566C71.5997 38.9797 71.5997 44.8628 69.9047 44.2766C68.6472 43.8416 67.6348 43.6878 67.0673 44.2766C64.23 47.8095 65.9324 50.1648 67.6348 52.5201H74.4445V56.6419H64.23C62.5276 55.4642 64.23 51.9313 60.8252 52.5201C60.8252 52.5201 55.8075 59.8546 49.9669 56.6419Z" stroke="#0034AC"/>
<path d="M51.1782 17.7796C49.6712 17.2277 47.7734 20.1349 47.7734 20.1349C47.7734 20.1349 50.6107 19.546 50.6107 21.9013C50.6107 24.5232 48.3409 23.6678 48.9083 28.3784C49.3206 31.801 54.0155 34.8554 57.9878 33.6778C61.9601 32.5002 63.0951 28.9672 62.5276 27.2007C60.8252 21.9013 61.8359 19.6644 61.3926 14.8355C60.2846 17.3649 57.9878 16.6019 58.5553 21.3125C59.1228 24.2566 58.3224 28.883 55.1505 28.9672C51.7113 29.0586 53.2404 21.1722 52.8806 20.1349C52.5208 19.0975 52.2231 18.1622 51.1782 17.7796Z" stroke="#0034AC"/>
</svg>
