<svg width="204" height="50" viewBox="0 0 204 50" fill="none" xmlns="http://www.w3.org/2000/svg">
<path d="M3.99639 26.1575L15.8695 44.8918C17.2537 47.0758 20.4468 47.0563 21.8046 44.8554L33.4508 25.9772C34.8944 23.6371 33.2003 20.6229 30.451 20.6398L6.93163 20.7838C4.18231 20.8006 2.52469 23.8353 3.99639 26.1575Z" fill="white" stroke="#0034AC" stroke-width="5"/>
<circle cx="18.75" cy="15.75" r="17.25" fill="white" stroke="#0034AC" stroke-width="3"/>
<path d="M32.25 15.4909C32.25 22.6824 26.4031 28.5146 19.1875 28.5146C11.9719 28.5146 6.125 22.6824 6.125 15.4909C6.125 8.29938 11.9719 2.46709 19.1875 2.46709C26.4031 2.46709 32.25 8.29938 32.25 15.4909Z" fill="#0034AC" stroke="#0034AC"/>
<path d="M16.4851 23.2388C13.1132 21.3841 14.7319 17.6745 14.7319 17.6745L10.8652 15.5547C10.8652 15.5547 10.1777 15.5833 9.11399 16.0847C7.71813 16.7426 8.16772 12.2181 9.36935 12.905C9.8598 13.1854 10.8652 13.7262 10.8652 13.7262L21.3713 14.4948C22.3928 14.7598 23.9249 16.0846 25.4571 15.5547C26.2199 15.2909 26.2199 17.9383 25.4571 17.6745C24.8912 17.4787 24.4357 17.4095 24.1803 17.6745C22.9035 19.2643 23.6696 20.3242 24.4357 21.3841H27.5V23.2388H22.9035C22.1374 22.7089 22.9035 21.1191 21.3713 21.3841C21.3713 21.3841 19.1134 24.6846 16.4851 23.2388Z" fill="white"/>
<path d="M17.0302 5.75081C16.3521 5.50247 15.498 6.81069 15.498 6.81069C15.498 6.81069 16.7748 6.54572 16.7748 7.6056C16.7748 8.78543 15.7534 8.40052 16.0087 10.5203C16.1943 12.0605 18.307 13.435 20.0945 12.905C21.8821 12.3751 22.3928 10.7852 22.1374 9.99034C21.3713 7.60561 21.8261 6.59899 21.6267 4.42596C21.1281 5.56421 20.0945 5.22087 20.3499 7.34063C20.6052 8.66549 20.2451 10.7473 18.8177 10.7852C17.2701 10.8264 17.9582 7.27751 17.7963 6.81069C17.6344 6.34388 17.5004 5.92301 17.0302 5.75081Z" fill="white"/>
<path d="M16.4851 23.2388C13.1132 21.3841 14.7319 17.6745 14.7319 17.6745L10.8652 15.5547C10.8652 15.5547 10.1777 15.5833 9.11399 16.0847C7.71813 16.7426 8.16772 12.2181 9.36935 12.905C9.8598 13.1854 10.8652 13.7262 10.8652 13.7262L21.3713 14.4948C22.3928 14.7598 23.9249 16.0846 25.4571 15.5547C26.2199 15.2909 26.2199 17.9383 25.4571 17.6745C24.8912 17.4787 24.4357 17.4095 24.1803 17.6745C22.9035 19.2643 23.6696 20.3242 24.4357 21.3841H27.5V23.2388H22.9035C22.1374 22.7089 22.9035 21.1191 21.3713 21.3841C21.3713 21.3841 19.1134 24.6846 16.4851 23.2388Z" stroke="white"/>
<path d="M17.0302 5.75081C16.3521 5.50247 15.498 6.81069 15.498 6.81069C15.498 6.81069 16.7748 6.54572 16.7748 7.6056C16.7748 8.78543 15.7534 8.40052 16.0087 10.5203C16.1943 12.0605 18.307 13.435 20.0945 12.905C21.8821 12.3751 22.3928 10.7852 22.1374 9.99034C21.3713 7.60561 21.8261 6.59899 21.6267 4.42596C21.1281 5.56421 20.0945 5.22087 20.3499 7.34063C20.6052 8.66549 20.2451 10.7473 18.8177 10.7852C17.2701 10.8264 17.9582 7.27751 17.7963 6.81069C17.6344 6.34388 17.5004 5.92301 17.0302 5.75081Z" stroke="white"/>
<path d="M49.785 33.71C51.3717 33.71 52.5267 33.4417 53.25 32.905C53.9733 32.3683 54.335 31.61 54.335 30.63C54.335 30.0467 54.2067 29.545 53.95 29.125C53.7167 28.705 53.3667 28.3317 52.9 28.005C52.4567 27.655 51.9083 27.34 51.255 27.06C50.6017 26.7567 49.855 26.465 49.015 26.185C48.175 25.8817 47.3583 25.555 46.565 25.205C45.795 24.8317 45.1067 24.3767 44.5 23.84C43.9167 23.3033 43.4383 22.6617 43.065 21.915C42.715 21.1683 42.54 20.27 42.54 19.22C42.54 17.0267 43.2983 15.3117 44.815 14.075C46.3317 12.815 48.3967 12.185 51.01 12.185C52.5267 12.185 53.8683 12.36 55.035 12.71C56.225 13.0367 57.1583 13.3983 57.835 13.795L56.47 17.365C55.6767 16.9217 54.8017 16.5833 53.845 16.35C52.9117 16.1167 51.9433 16 50.94 16C49.75 16 48.8167 16.245 48.14 16.735C47.4867 17.225 47.16 17.9133 47.16 18.8C47.16 19.3367 47.265 19.8033 47.475 20.2C47.7083 20.5733 48.0233 20.9117 48.42 21.215C48.84 21.5183 49.3183 21.7983 49.855 22.055C50.415 22.3117 51.0217 22.5567 51.675 22.79C52.8183 23.21 53.8333 23.6417 54.72 24.085C55.63 24.505 56.3883 25.0183 56.995 25.625C57.625 26.2083 58.1033 26.9083 58.43 27.725C58.7567 28.5183 58.92 29.4867 58.92 30.63C58.92 32.8233 58.1383 34.5267 56.575 35.74C55.035 36.93 52.7717 37.525 49.785 37.525C48.7817 37.525 47.86 37.455 47.02 37.315C46.2033 37.1983 45.4683 37.0467 44.815 36.86C44.185 36.6733 43.6367 36.4867 43.17 36.3C42.7033 36.09 42.33 35.9033 42.05 35.74L43.345 32.135C43.975 32.485 44.8267 32.835 45.9 33.185C46.9733 33.535 48.2683 33.71 49.785 33.71ZM73.0264 27.375C73.0264 25.4617 72.7814 24.085 72.2914 23.245C71.8247 22.3817 70.938 21.95 69.6314 21.95C69.1647 21.95 68.6514 21.985 68.0914 22.055C67.5314 22.125 67.1114 22.1833 66.8314 22.23V37H62.5964V19.29C63.413 19.0567 64.4747 18.835 65.7814 18.625C67.1114 18.415 68.5114 18.31 69.9814 18.31C71.2414 18.31 72.268 18.4733 73.0614 18.8C73.878 19.1267 74.5547 19.5583 75.0914 20.095C75.348 19.9083 75.6747 19.71 76.0714 19.5C76.468 19.29 76.9114 19.1033 77.4014 18.94C77.8914 18.7533 78.4047 18.6017 78.9414 18.485C79.5014 18.3683 80.0614 18.31 80.6214 18.31C82.0447 18.31 83.2114 18.52 84.1214 18.94C85.0547 19.3367 85.778 19.9083 86.2914 20.655C86.828 21.3783 87.1897 22.265 87.3764 23.315C87.5864 24.3417 87.6914 25.4733 87.6914 26.71V37H83.4564V27.375C83.4564 25.4617 83.223 24.085 82.7564 23.245C82.2897 22.3817 81.3914 21.95 80.0614 21.95C79.3847 21.95 78.743 22.0667 78.1364 22.3C77.5297 22.51 77.0747 22.72 76.7714 22.93C76.958 23.5133 77.0864 24.1317 77.1564 24.785C77.2264 25.4383 77.2614 26.1383 77.2614 26.885V37H73.0264V27.375ZM109.435 27.83C109.435 29.2767 109.225 30.595 108.805 31.785C108.385 32.975 107.79 33.99 107.02 34.83C106.25 35.67 105.316 36.3233 104.22 36.79C103.146 37.2567 101.956 37.49 100.65 37.49C99.3429 37.49 98.1529 37.2567 97.0796 36.79C96.0062 36.3233 95.0846 35.67 94.3146 34.83C93.5446 33.99 92.9379 32.975 92.4946 31.785C92.0746 30.595 91.8646 29.2767 91.8646 27.83C91.8646 26.3833 92.0746 25.0767 92.4946 23.91C92.9379 22.72 93.5446 21.705 94.3146 20.865C95.1079 20.025 96.0412 19.3833 97.1146 18.94C98.1879 18.4733 99.3662 18.24 100.65 18.24C101.933 18.24 103.111 18.4733 104.185 18.94C105.281 19.3833 106.215 20.025 106.985 20.865C107.755 21.705 108.35 22.72 108.77 23.91C109.213 25.0767 109.435 26.3833 109.435 27.83ZM105.095 27.83C105.095 26.01 104.698 24.575 103.905 23.525C103.135 22.4517 102.05 21.915 100.65 21.915C99.2496 21.915 98.1529 22.4517 97.3596 23.525C96.5896 24.575 96.2046 26.01 96.2046 27.83C96.2046 29.6733 96.5896 31.1317 97.3596 32.205C98.1529 33.2783 99.2496 33.815 100.65 33.815C102.05 33.815 103.135 33.2783 103.905 32.205C104.698 31.1317 105.095 29.6733 105.095 27.83ZM129.338 33.185V37H114.008V12.745H118.418V33.185H129.338ZM152.213 16.07C149.716 16.07 147.803 16.8517 146.473 18.415C145.166 19.955 144.513 22.1017 144.513 24.855C144.513 26.1617 144.664 27.3633 144.968 28.46C145.294 29.5333 145.761 30.455 146.368 31.225C146.998 31.995 147.768 32.6017 148.678 33.045C149.611 33.465 150.696 33.675 151.933 33.675C152.703 33.675 153.368 33.6517 153.928 33.605C154.488 33.535 154.931 33.4533 155.258 33.36V24.645H159.668V36.3C159.061 36.5333 158.034 36.79 156.588 37.07C155.141 37.35 153.473 37.49 151.583 37.49C149.833 37.49 148.234 37.21 146.788 36.65C145.341 36.09 144.104 35.2733 143.078 34.2C142.074 33.1267 141.293 31.8083 140.733 30.245C140.173 28.6817 139.893 26.885 139.893 24.855C139.893 22.825 140.196 21.0283 140.803 19.465C141.433 17.9017 142.284 16.5833 143.358 15.51C144.431 14.4133 145.691 13.585 147.138 13.025C148.584 12.465 150.124 12.185 151.758 12.185C152.878 12.185 153.869 12.2667 154.733 12.43C155.619 12.57 156.378 12.7333 157.008 12.92C157.638 13.1067 158.151 13.305 158.548 13.515C158.968 13.725 159.259 13.8767 159.423 13.97L158.093 17.575C157.393 17.155 156.518 16.805 155.468 16.525C154.441 16.2217 153.356 16.07 152.213 16.07ZM168.824 37H164.589V18.695H168.824V37ZM169.279 13.34C169.279 14.1333 169.023 14.7633 168.509 15.23C167.996 15.6967 167.389 15.93 166.689 15.93C165.966 15.93 165.348 15.6967 164.834 15.23C164.321 14.7633 164.064 14.1333 164.064 13.34C164.064 12.5233 164.321 11.8817 164.834 11.415C165.348 10.9483 165.966 10.715 166.689 10.715C167.389 10.715 167.996 10.9483 168.509 11.415C169.023 11.8817 169.279 12.5233 169.279 13.34ZM177.552 27.795C177.552 29.6617 177.996 31.1317 178.882 32.205C179.769 33.255 180.994 33.78 182.557 33.78C183.234 33.78 183.806 33.7567 184.272 33.71C184.762 33.64 185.159 33.57 185.462 33.5V23C185.089 22.7433 184.587 22.51 183.957 22.3C183.351 22.0667 182.697 21.95 181.997 21.95C180.457 21.95 179.326 22.475 178.602 23.525C177.902 24.575 177.552 25.9983 177.552 27.795ZM189.697 36.44C188.857 36.6967 187.796 36.93 186.512 37.14C185.252 37.35 183.922 37.455 182.522 37.455C181.076 37.455 179.781 37.2333 178.637 36.79C177.494 36.3467 176.514 35.7167 175.697 34.9C174.904 34.06 174.286 33.0567 173.842 31.89C173.422 30.7 173.212 29.37 173.212 27.9C173.212 26.4533 173.387 25.1467 173.737 23.98C174.111 22.79 174.647 21.775 175.347 20.935C176.047 20.095 176.899 19.4533 177.902 19.01C178.906 18.5433 180.061 18.31 181.367 18.31C182.254 18.31 183.036 18.415 183.712 18.625C184.389 18.835 184.972 19.0683 185.462 19.325V10.54L189.697 9.84V36.44Z" fill="white"/>
</svg>
